<svg width="30" height="30" viewBox="0 0 30 30" fill="none" xmlns="http://www.w3.org/2000/svg">
<rect width="30" height="30" rx="6" fill="#4C52BC"/>
<path opacity="0.9" fill-rule="evenodd" clip-rule="evenodd" d="M20 9C20 8.44772 19.5523 8 19 8C18.4477 8 18 8.44772 18 9V21C18 21.5523 18.4477 22 19 22C19.5523 22 20 21.5523 20 21V9ZM16 17C16 17.5523 15.5523 18 15 18C14.4477 18 14 17.5523 14 17V13C14 12.4477 14.4477 12 15 12C15.5523 12 16 12.4477 16 13V17ZM23 13C23.5523 13 24 13.4477 24 14V16C24 16.5523 23.5523 17 23 17C22.4477 17 22 16.5523 22 16V14C22 13.4477 22.4477 13 23 13ZM7 13C6.44772 13 6 13.4477 6 14V16C6 16.5523 6.44772 17 7 17C7.55228 17 8 16.5523 8 16V14C8 13.4477 7.55228 13 7 13ZM10 11C10 10.4477 10.4477 10 11 10C11.5523 10 12 10.4477 12 11V19C12 19.5523 11.5523 20 11 20C10.4477 20 10 19.5523 10 19V11Z" fill="white"/>
</svg>
