<svg width="30" height="30" viewBox="0 0 30 30" fill="none" xmlns="http://www.w3.org/2000/svg">
<rect width="30" height="30" rx="6" fill="#4C52BC"/>
<path opacity="0.896252" d="M20 13.6288V14.6084C20 14.8231 19.8321 14.9972 19.625 14.9972H18.875C18.6679 14.9972 18.5 14.8231 18.5 14.6084V14.3985C18.4819 13.6181 18.0489 12.912 17.375 12.5637C17.24 12.486 17.12 12.3927 17 12.3071V19.3043C16.8724 20.8976 15.5394 22.0929 14 21.9943C12.4498 22.0922 11.1122 20.8789 11 19.2732C11.1122 17.6675 12.4498 16.4542 14 16.5521C14.5224 16.551 15.0372 16.6817 15.5 16.933V8.38873C15.5 8.17404 15.6679 8 15.875 8H16.625C16.8321 8 17 8.17404 17 8.38873V8.5209C16.9843 9.30816 17.3997 10.0368 18.0725 10.4024C19.2554 11.0095 20.0028 12.2606 20 13.6288V13.6288Z" fill="white"/>
</svg>
